<?xml version="1.0" encoding="utf-8"?><!DOCTYPE svg PUBLIC "-//W3C//DTD SVG 1.1//EN" "http://www.w3.org/Graphics/SVG/1.1/DTD/svg11.dtd"><svg version="1.1" xmlns="http://www.w3.org/2000/svg" width="160" height="160"><rect width="160" height="160" style="fill: rgb(36, 36, 36)" /><rect x="1" y="1" width="8" height="8" style="fill: rgb(31, 31, 31)" /><rect x="1" y="11" width="8" height="8" style="fill: rgb(42, 42, 42)" /><rect x="1" y="21" width="8" height="8" style="fill: rgb(42, 42, 42)" /><rect x="1" y="31" width="8" height="8" style="fill: rgb(31, 31, 31)" /><rect x="1" y="41" width="8" height="8" style="fill: rgb(36, 36, 36)" /><rect x="1" y="51" width="8" height="8" style="fill: rgb(37, 37, 37)" /><rect x="1" y="61" width="8" height="8" style="fill: rgb(33, 33, 33)" /><rect x="1" y="71" width="8" height="8" style="fill: rgb(38, 38, 38)" /><rect x="1" y="81" width="8" height="8" style="fill: rgb(38, 38, 38)" /><rect x="1" y="91" width="8" height="8" style="fill: rgb(38, 38, 38)" /><rect x="1" y="101" width="8" height="8" style="fill: rgb(30, 30, 30)" /><rect x="1" y="111" width="8" height="8" style="fill: rgb(40, 40, 40)" /><rect x="1" y="121" width="8" height="8" style="fill: rgb(38, 38, 38)" /><rect x="1" y="131" width="8" height="8" style="fill: rgb(33, 33, 33)" /><rect x="1" y="141" width="8" height="8" style="fill: rgb(40, 40, 40)" /><rect x="1" y="151" width="8" height="8" style="fill: rgb(41, 41, 41)" /><rect x="11" y="1" width="8" height="8" style="fill: rgb(32, 32, 32)" /><rect x="11" y="11" width="8" height="8" style="fill: rgb(30, 30, 30)" /><rect x="11" y="21" width="8" height="8" style="fill: rgb(40, 40, 40)" /><rect x="11" y="31" width="8" height="8" style="fill: rgb(41, 41, 41)" /><rect x="11" y="41" width="8" height="8" style="fill: rgb(41, 41, 41)" /><rect x="11" y="51" width="8" height="8" style="fill: rgb(41, 41, 41)" /><rect x="11" y="61" width="8" height="8" style="fill: rgb(33, 33, 33)" /><rect x="11" y="71" width="8" height="8" style="fill: rgb(30, 30, 30)" /><rect x="11" y="81" width="8" height="8" style="fill: rgb(31, 31, 31)" /><rect x="11" y="91" width="8" height="8" style="fill: rgb(40, 40, 40)" /><rect x="11" y="101" width="8" height="8" style="fill: rgb(42, 42, 42)" /><rect x="11" y="111" width="8" height="8" style="fill: rgb(30, 30, 30)" /><rect x="11" y="121" width="8" height="8" style="fill: rgb(42, 42, 42)" /><rect x="11" y="131" width="8" height="8" style="fill: rgb(37, 37, 37)" /><rect x="11" y="141" width="8" height="8" style="fill: rgb(30, 30, 30)" /><rect x="11" y="151" width="8" height="8" style="fill: rgb(41, 41, 41)" /><rect x="21" y="1" width="8" height="8" style="fill: rgb(42, 42, 42)" /><rect x="21" y="11" width="8" height="8" style="fill: rgb(30, 30, 30)" /><rect x="21" y="21" width="8" height="8" style="fill: rgb(36, 36, 36)" /><rect x="21" y="31" width="8" height="8" style="fill: rgb(34, 34, 34)" /><rect x="21" y="41" width="8" height="8" style="fill: rgb(41, 41, 41)" /><rect x="21" y="51" width="8" height="8" style="fill: rgb(42, 42, 42)" /><rect x="21" y="61" width="8" height="8" style="fill: rgb(35, 35, 35)" /><rect x="21" y="71" width="8" height="8" style="fill: rgb(35, 35, 35)" /><rect x="21" y="81" width="8" height="8" style="fill: rgb(42, 42, 42)" /><rect x="21" y="91" width="8" height="8" style="fill: rgb(38, 38, 38)" /><rect x="21" y="101" width="8" height="8" style="fill: rgb(35, 35, 35)" /><rect x="21" y="111" width="8" height="8" style="fill: rgb(35, 35, 35)" /><rect x="21" y="121" width="8" height="8" style="fill: rgb(31, 31, 31)" /><rect x="21" y="131" width="8" height="8" style="fill: rgb(34, 34, 34)" /><rect x="21" y="141" width="8" height="8" style="fill: rgb(38, 38, 38)" /><rect x="21" y="151" width="8" height="8" style="fill: rgb(38, 38, 38)" /><rect x="31" y="1" width="8" height="8" style="fill: rgb(36, 36, 36)" /><rect x="31" y="11" width="8" height="8" style="fill: rgb(41, 41, 41)" /><rect x="31" y="21" width="8" height="8" style="fill: rgb(38, 38, 38)" /><rect x="31" y="31" width="8" height="8" style="fill: rgb(38, 38, 38)" /><rect x="31" y="41" width="8" height="8" style="fill: rgb(42, 42, 42)" /><rect x="31" y="51" width="8" height="8" style="fill: rgb(31, 31, 31)" /><rect x="31" y="61" width="8" height="8" style="fill: rgb(40, 40, 40)" /><rect x="31" y="71" width="8" height="8" style="fill: rgb(33, 33, 33)" /><rect x="31" y="81" width="8" height="8" style="fill: rgb(38, 38, 38)" /><rect x="31" y="91" width="8" height="8" style="fill: rgb(42, 42, 42)" /><rect x="31" y="101" width="8" height="8" style="fill: rgb(42, 42, 42)" /><rect x="31" y="111" width="8" height="8" style="fill: rgb(39, 39, 39)" /><rect x="31" y="121" width="8" height="8" style="fill: rgb(37, 37, 37)" /><rect x="31" y="131" width="8" height="8" style="fill: rgb(32, 32, 32)" /><rect x="31" y="141" width="8" height="8" style="fill: rgb(38, 38, 38)" /><rect x="31" y="151" width="8" height="8" style="fill: rgb(31, 31, 31)" /><rect x="41" y="1" width="8" height="8" style="fill: rgb(37, 37, 37)" /><rect x="41" y="11" width="8" height="8" style="fill: rgb(32, 32, 32)" /><rect x="41" y="21" width="8" height="8" style="fill: rgb(41, 41, 41)" /><rect x="41" y="31" width="8" height="8" style="fill: rgb(37, 37, 37)" /><rect x="41" y="41" width="8" height="8" style="fill: rgb(40, 40, 40)" /><rect x="41" y="51" width="8" height="8" style="fill: rgb(36, 36, 36)" /><rect x="41" y="61" width="8" height="8" style="fill: rgb(42, 42, 42)" /><rect x="41" y="71" width="8" height="8" style="fill: rgb(32, 32, 32)" /><rect x="41" y="81" width="8" height="8" style="fill: rgb(38, 38, 38)" /><rect x="41" y="91" width="8" height="8" style="fill: rgb(35, 35, 35)" /><rect x="41" y="101" width="8" height="8" style="fill: rgb(42, 42, 42)" /><rect x="41" y="111" width="8" height="8" style="fill: rgb(32, 32, 32)" /><rect x="41" y="121" width="8" height="8" style="fill: rgb(36, 36, 36)" /><rect x="41" y="131" width="8" height="8" style="fill: rgb(41, 41, 41)" /><rect x="41" y="141" width="8" height="8" style="fill: rgb(42, 42, 42)" /><rect x="41" y="151" width="8" height="8" style="fill: rgb(40, 40, 40)" /><rect x="51" y="1" width="8" height="8" style="fill: rgb(31, 31, 31)" /><rect x="51" y="11" width="8" height="8" style="fill: rgb(34, 34, 34)" /><rect x="51" y="21" width="8" height="8" style="fill: rgb(36, 36, 36)" /><rect x="51" y="31" width="8" height="8" style="fill: rgb(31, 31, 31)" /><rect x="51" y="41" width="8" height="8" style="fill: rgb(41, 41, 41)" /><rect x="51" y="51" width="8" height="8" style="fill: rgb(34, 34, 34)" /><rect x="51" y="61" width="8" height="8" style="fill: rgb(42, 42, 42)" /><rect x="51" y="71" width="8" height="8" style="fill: rgb(41, 41, 41)" /><rect x="51" y="81" width="8" height="8" style="fill: rgb(33, 33, 33)" /><rect x="51" y="91" width="8" height="8" style="fill: rgb(32, 32, 32)" /><rect x="51" y="101" width="8" height="8" style="fill: rgb(39, 39, 39)" /><rect x="51" y="111" width="8" height="8" style="fill: rgb(42, 42, 42)" /><rect x="51" y="121" width="8" height="8" style="fill: rgb(42, 42, 42)" /><rect x="51" y="131" width="8" height="8" style="fill: rgb(38, 38, 38)" /><rect x="51" y="141" width="8" height="8" style="fill: rgb(41, 41, 41)" /><rect x="51" y="151" width="8" height="8" style="fill: rgb(39, 39, 39)" /><rect x="61" y="1" width="8" height="8" style="fill: rgb(30, 30, 30)" /><rect x="61" y="11" width="8" height="8" style="fill: rgb(33, 33, 33)" /><rect x="61" y="21" width="8" height="8" style="fill: rgb(40, 40, 40)" /><rect x="61" y="31" width="8" height="8" style="fill: rgb(41, 41, 41)" /><rect x="61" y="41" width="8" height="8" style="fill: rgb(36, 36, 36)" /><rect x="61" y="51" width="8" height="8" style="fill: rgb(31, 31, 31)" /><rect x="61" y="61" width="8" height="8" style="fill: rgb(40, 40, 40)" /><rect x="61" y="71" width="8" height="8" style="fill: rgb(30, 30, 30)" /><rect x="61" y="81" width="8" height="8" style="fill: rgb(42, 42, 42)" /><rect x="61" y="91" width="8" height="8" style="fill: rgb(36, 36, 36)" /><rect x="61" y="101" width="8" height="8" style="fill: rgb(30, 30, 30)" /><rect x="61" y="111" width="8" height="8" style="fill: rgb(36, 36, 36)" /><rect x="61" y="121" width="8" height="8" style="fill: rgb(32, 32, 32)" /><rect x="61" y="131" width="8" height="8" style="fill: rgb(38, 38, 38)" /><rect x="61" y="141" width="8" height="8" style="fill: rgb(39, 39, 39)" /><rect x="61" y="151" width="8" height="8" style="fill: rgb(39, 39, 39)" /><rect x="71" y="1" width="8" height="8" style="fill: rgb(42, 42, 42)" /><rect x="71" y="11" width="8" height="8" style="fill: rgb(32, 32, 32)" /><rect x="71" y="21" width="8" height="8" style="fill: rgb(38, 38, 38)" /><rect x="71" y="31" width="8" height="8" style="fill: rgb(32, 32, 32)" /><rect x="71" y="41" width="8" height="8" style="fill: rgb(39, 39, 39)" /><rect x="71" y="51" width="8" height="8" style="fill: rgb(37, 37, 37)" /><rect x="71" y="61" width="8" height="8" style="fill: rgb(32, 32, 32)" /><rect x="71" y="71" width="8" height="8" style="fill: rgb(33, 33, 33)" /><rect x="71" y="81" width="8" height="8" style="fill: rgb(33, 33, 33)" /><rect x="71" y="91" width="8" height="8" style="fill: rgb(42, 42, 42)" /><rect x="71" y="101" width="8" height="8" style="fill: rgb(33, 33, 33)" /><rect x="71" y="111" width="8" height="8" style="fill: rgb(37, 37, 37)" /><rect x="71" y="121" width="8" height="8" style="fill: rgb(40, 40, 40)" /><rect x="71" y="131" width="8" height="8" style="fill: rgb(42, 42, 42)" /><rect x="71" y="141" width="8" height="8" style="fill: rgb(33, 33, 33)" /><rect x="71" y="151" width="8" height="8" style="fill: rgb(42, 42, 42)" /><rect x="81" y="1" width="8" height="8" style="fill: rgb(37, 37, 37)" /><rect x="81" y="11" width="8" height="8" style="fill: rgb(33, 33, 33)" /><rect x="81" y="21" width="8" height="8" style="fill: rgb(32, 32, 32)" /><rect x="81" y="31" width="8" height="8" style="fill: rgb(32, 32, 32)" /><rect x="81" y="41" width="8" height="8" style="fill: rgb(31, 31, 31)" /><rect x="81" y="51" width="8" height="8" style="fill: rgb(30, 30, 30)" /><rect x="81" y="61" width="8" height="8" style="fill: rgb(33, 33, 33)" /><rect x="81" y="71" width="8" height="8" style="fill: rgb(42, 42, 42)" /><rect x="81" y="81" width="8" height="8" style="fill: rgb(37, 37, 37)" /><rect x="81" y="91" width="8" height="8" style="fill: rgb(35, 35, 35)" /><rect x="81" y="101" width="8" height="8" style="fill: rgb(31, 31, 31)" /><rect x="81" y="111" width="8" height="8" style="fill: rgb(35, 35, 35)" /><rect x="81" y="121" width="8" height="8" style="fill: rgb(34, 34, 34)" /><rect x="81" y="131" width="8" height="8" style="fill: rgb(35, 35, 35)" /><rect x="81" y="141" width="8" height="8" style="fill: rgb(39, 39, 39)" /><rect x="81" y="151" width="8" height="8" style="fill: rgb(37, 37, 37)" /><rect x="91" y="1" width="8" height="8" style="fill: rgb(35, 35, 35)" /><rect x="91" y="11" width="8" height="8" style="fill: rgb(42, 42, 42)" /><rect x="91" y="21" width="8" height="8" style="fill: rgb(30, 30, 30)" /><rect x="91" y="31" width="8" height="8" style="fill: rgb(39, 39, 39)" /><rect x="91" y="41" width="8" height="8" style="fill: rgb(30, 30, 30)" /><rect x="91" y="51" width="8" height="8" style="fill: rgb(38, 38, 38)" /><rect x="91" y="61" width="8" height="8" style="fill: rgb(42, 42, 42)" /><rect x="91" y="71" width="8" height="8" style="fill: rgb(35, 35, 35)" /><rect x="91" y="81" width="8" height="8" style="fill: rgb(30, 30, 30)" /><rect x="91" y="91" width="8" height="8" style="fill: rgb(37, 37, 37)" /><rect x="91" y="101" width="8" height="8" style="fill: rgb(38, 38, 38)" /><rect x="91" y="111" width="8" height="8" style="fill: rgb(36, 36, 36)" /><rect x="91" y="121" width="8" height="8" style="fill: rgb(40, 40, 40)" /><rect x="91" y="131" width="8" height="8" style="fill: rgb(32, 32, 32)" /><rect x="91" y="141" width="8" height="8" style="fill: rgb(33, 33, 33)" /><rect x="91" y="151" width="8" height="8" style="fill: rgb(30, 30, 30)" /><rect x="101" y="1" width="8" height="8" style="fill: rgb(33, 33, 33)" /><rect x="101" y="11" width="8" height="8" style="fill: rgb(30, 30, 30)" /><rect x="101" y="21" width="8" height="8" style="fill: rgb(41, 41, 41)" /><rect x="101" y="31" width="8" height="8" style="fill: rgb(42, 42, 42)" /><rect x="101" y="41" width="8" height="8" style="fill: rgb(35, 35, 35)" /><rect x="101" y="51" width="8" height="8" style="fill: rgb(37, 37, 37)" /><rect x="101" y="61" width="8" height="8" style="fill: rgb(38, 38, 38)" /><rect x="101" y="71" width="8" height="8" style="fill: rgb(41, 41, 41)" /><rect x="101" y="81" width="8" height="8" style="fill: rgb(41, 41, 41)" /><rect x="101" y="91" width="8" height="8" style="fill: rgb(38, 38, 38)" /><rect x="101" y="101" width="8" height="8" style="fill: rgb(37, 37, 37)" /><rect x="101" y="111" width="8" height="8" style="fill: rgb(33, 33, 33)" /><rect x="101" y="121" width="8" height="8" style="fill: rgb(36, 36, 36)" /><rect x="101" y="131" width="8" height="8" style="fill: rgb(40, 40, 40)" /><rect x="101" y="141" width="8" height="8" style="fill: rgb(41, 41, 41)" /><rect x="101" y="151" width="8" height="8" style="fill: rgb(40, 40, 40)" /><rect x="111" y="1" width="8" height="8" style="fill: rgb(33, 33, 33)" /><rect x="111" y="11" width="8" height="8" style="fill: rgb(39, 39, 39)" /><rect x="111" y="21" width="8" height="8" style="fill: rgb(32, 32, 32)" /><rect x="111" y="31" width="8" height="8" style="fill: rgb(40, 40, 40)" /><rect x="111" y="41" width="8" height="8" style="fill: rgb(41, 41, 41)" /><rect x="111" y="51" width="8" height="8" style="fill: rgb(36, 36, 36)" /><rect x="111" y="61" width="8" height="8" style="fill: rgb(42, 42, 42)" /><rect x="111" y="71" width="8" height="8" style="fill: rgb(41, 41, 41)" /><rect x="111" y="81" width="8" height="8" style="fill: rgb(33, 33, 33)" /><rect x="111" y="91" width="8" height="8" style="fill: rgb(40, 40, 40)" /><rect x="111" y="101" width="8" height="8" style="fill: rgb(32, 32, 32)" /><rect x="111" y="111" width="8" height="8" style="fill: rgb(37, 37, 37)" /><rect x="111" y="121" width="8" height="8" style="fill: rgb(35, 35, 35)" /><rect x="111" y="131" width="8" height="8" style="fill: rgb(40, 40, 40)" /><rect x="111" y="141" width="8" height="8" style="fill: rgb(32, 32, 32)" /><rect x="111" y="151" width="8" height="8" style="fill: rgb(35, 35, 35)" /><rect x="121" y="1" width="8" height="8" style="fill: rgb(32, 32, 32)" /><rect x="121" y="11" width="8" height="8" style="fill: rgb(31, 31, 31)" /><rect x="121" y="21" width="8" height="8" style="fill: rgb(32, 32, 32)" /><rect x="121" y="31" width="8" height="8" style="fill: rgb(34, 34, 34)" /><rect x="121" y="41" width="8" height="8" style="fill: rgb(36, 36, 36)" /><rect x="121" y="51" width="8" height="8" style="fill: rgb(39, 39, 39)" /><rect x="121" y="61" width="8" height="8" style="fill: rgb(32, 32, 32)" /><rect x="121" y="71" width="8" height="8" style="fill: rgb(41, 41, 41)" /><rect x="121" y="81" width="8" height="8" style="fill: rgb(33, 33, 33)" /><rect x="121" y="91" width="8" height="8" style="fill: rgb(31, 31, 31)" /><rect x="121" y="101" width="8" height="8" style="fill: rgb(41, 41, 41)" /><rect x="121" y="111" width="8" height="8" style="fill: rgb(35, 35, 35)" /><rect x="121" y="121" width="8" height="8" style="fill: rgb(30, 30, 30)" /><rect x="121" y="131" width="8" height="8" style="fill: rgb(39, 39, 39)" /><rect x="121" y="141" width="8" height="8" style="fill: rgb(42, 42, 42)" /><rect x="121" y="151" width="8" height="8" style="fill: rgb(33, 33, 33)" /><rect x="131" y="1" width="8" height="8" style="fill: rgb(38, 38, 38)" /><rect x="131" y="11" width="8" height="8" style="fill: rgb(40, 40, 40)" /><rect x="131" y="21" width="8" height="8" style="fill: rgb(32, 32, 32)" /><rect x="131" y="31" width="8" height="8" style="fill: rgb(31, 31, 31)" /><rect x="131" y="41" width="8" height="8" style="fill: rgb(30, 30, 30)" /><rect x="131" y="51" width="8" height="8" style="fill: rgb(35, 35, 35)" /><rect x="131" y="61" width="8" height="8" style="fill: rgb(31, 31, 31)" /><rect x="131" y="71" width="8" height="8" style="fill: rgb(39, 39, 39)" /><rect x="131" y="81" width="8" height="8" style="fill: rgb(31, 31, 31)" /><rect x="131" y="91" width="8" height="8" style="fill: rgb(30, 30, 30)" /><rect x="131" y="101" width="8" height="8" style="fill: rgb(38, 38, 38)" /><rect x="131" y="111" width="8" height="8" style="fill: rgb(38, 38, 38)" /><rect x="131" y="121" width="8" height="8" style="fill: rgb(34, 34, 34)" /><rect x="131" y="131" width="8" height="8" style="fill: rgb(31, 31, 31)" /><rect x="131" y="141" width="8" height="8" style="fill: rgb(36, 36, 36)" /><rect x="131" y="151" width="8" height="8" style="fill: rgb(31, 31, 31)" /><rect x="141" y="1" width="8" height="8" style="fill: rgb(35, 35, 35)" /><rect x="141" y="11" width="8" height="8" style="fill: rgb(32, 32, 32)" /><rect x="141" y="21" width="8" height="8" style="fill: rgb(31, 31, 31)" /><rect x="141" y="31" width="8" height="8" style="fill: rgb(34, 34, 34)" /><rect x="141" y="41" width="8" height="8" style="fill: rgb(37, 37, 37)" /><rect x="141" y="51" width="8" height="8" style="fill: rgb(37, 37, 37)" /><rect x="141" y="61" width="8" height="8" style="fill: rgb(33, 33, 33)" /><rect x="141" y="71" width="8" height="8" style="fill: rgb(36, 36, 36)" /><rect x="141" y="81" width="8" height="8" style="fill: rgb(36, 36, 36)" /><rect x="141" y="91" width="8" height="8" style="fill: rgb(33, 33, 33)" /><rect x="141" y="101" width="8" height="8" style="fill: rgb(37, 37, 37)" /><rect x="141" y="111" width="8" height="8" style="fill: rgb(40, 40, 40)" /><rect x="141" y="121" width="8" height="8" style="fill: rgb(37, 37, 37)" /><rect x="141" y="131" width="8" height="8" style="fill: rgb(36, 36, 36)" /><rect x="141" y="141" width="8" height="8" style="fill: rgb(40, 40, 40)" /><rect x="141" y="151" width="8" height="8" style="fill: rgb(37, 37, 37)" /><rect x="151" y="1" width="8" height="8" style="fill: rgb(40, 40, 40)" /><rect x="151" y="11" width="8" height="8" style="fill: rgb(42, 42, 42)" /><rect x="151" y="21" width="8" height="8" style="fill: rgb(41, 41, 41)" /><rect x="151" y="31" width="8" height="8" style="fill: rgb(37, 37, 37)" /><rect x="151" y="41" width="8" height="8" style="fill: rgb(37, 37, 37)" /><rect x="151" y="51" width="8" height="8" style="fill: rgb(30, 30, 30)" /><rect x="151" y="61" width="8" height="8" style="fill: rgb(34, 34, 34)" /><rect x="151" y="71" width="8" height="8" style="fill: rgb(39, 39, 39)" /><rect x="151" y="81" width="8" height="8" style="fill: rgb(42, 42, 42)" /><rect x="151" y="91" width="8" height="8" style="fill: rgb(35, 35, 35)" /><rect x="151" y="101" width="8" height="8" style="fill: rgb(32, 32, 32)" /><rect x="151" y="111" width="8" height="8" style="fill: rgb(36, 36, 36)" /><rect x="151" y="121" width="8" height="8" style="fill: rgb(31, 31, 31)" /><rect x="151" y="131" width="8" height="8" style="fill: rgb(36, 36, 36)" /><rect x="151" y="141" width="8" height="8" style="fill: rgb(36, 36, 36)" /><rect x="151" y="151" width="8" height="8" style="fill: rgb(32, 32, 32)" /></svg>